<?xml version="1.0" encoding="utf-8"?>
<!-- Generator: Adobe Illustrator 21.0.2, SVG Export Plug-In . SVG Version: 6.00 Build 0)  -->
<svg version="1.1" id="Layer_1" xmlns="http://www.w3.org/2000/svg" xmlns:xlink="http://www.w3.org/1999/xlink" x="0px" y="0px"
	 viewBox="0 0 708.7 518.4" style="enable-background:new 0 0 708.7 518.4;" xml:space="preserve">
<style type="text/css">
	.st0{fill:#AE485E;}
	.st1{fill:#336178;}
</style>
<g>
	<path class="st0" d="M201.2,258.6L201.2,258.6l-30.6-83.8l-31.4,83.8H201.2z M204.9,270h-69.8l-12.2,32.7c-3,8.1-4.5,14.1-4.5,18.1
		c0,3.2,1.3,5.9,3.9,8.3c2.6,2.4,8.3,4,16.9,4.7v5.7H82.5v-5.7c7.5-1.5,12.4-3.5,14.6-6c4.5-4.9,9.5-14.8,15-29.8l63.4-170.7h4.6
		l62.7,172.6c5.1,13.9,9.6,22.9,13.8,27c4.1,4.1,9.9,6.5,17.2,7v5.7h-71.1v-5.7c7.2-0.4,12-1.8,14.6-4.1c2.5-2.3,3.8-5.2,3.8-8.6
		c0-4.5-1.8-11.6-5.3-21.3L204.9,270z"/>
	<path class="st0" d="M320.4,324.4L320.4,324.4c11.3,2.9,20.7,4.3,28.3,4.3c20.6,0,37.6-8.3,51.2-24.9
		c13.6-16.6,20.3-39.2,20.3-67.6c0-28.7-6.8-56.2-20.3-72.7c-13.6-16.5-31-24.8-52.2-24.8c-8,0-17,1.5-27.2,4.4V324.4z M269,339.4
		v-5.7h6.8c7.6,0,13-2.8,16.2-8.4c1.9-3.4,2.9-10.9,2.9-22.6V163.8c0-12.9-1.3-21.1-3.7-24.3c-3.5-4.5-8.6-6.7-15.4-6.7H269v-5.7
		h73.4c26.9,0,47.4,3.5,61.5,10.6c14,7,25.3,18.8,33.9,35.2c8.5,16.4,12.8,40.3,12.8,61.8c0,28.9-7.6,53-22.9,72.4
		c-17.1,21.6-43.2,32.4-78.1,32.4H269z"/>
	<path class="st0" d="M556.3,258.6L556.3,258.6l-30.6-83.8l-31.4,83.8H556.3z M560.1,270h-69.8l-12.2,32.7c-3,8.1-4.5,14.1-4.5,18.1
		c0,3.2,1.3,5.9,3.9,8.3c2.6,2.4,8.3,4,16.9,4.7v5.7h-56.8v-5.7c7.5-1.5,12.4-3.5,14.6-6c4.5-4.9,9.5-14.8,15-29.8l63.4-170.7h4.7
		l62.7,172.6c5,13.9,9.6,22.9,13.7,27c4.1,4.1,9.9,6.5,17.2,7v5.7H558v-5.7c7.2-0.4,12-1.8,14.5-4.1c2.5-2.3,3.8-5.2,3.8-8.6
		c0-4.5-1.8-11.6-5.3-21.3L560.1,270z"/>
	<path class="st1" d="M2.6,321.9l-0.7-0.1l0.7-9.5l0.7,0.1l-0.1,1c-0.1,1.1,0.3,1.9,1.2,2.5c0.4,0.3,1.3,0.5,2.8,0.6l10.9,0.8
		c2.7,0.2,4.8,0.6,6.2,1.2c1.5,0.6,2.7,1.8,3.6,3.4c1,1.6,1.3,3.8,1.2,6.5c-0.2,2.9-0.9,5.1-2,6.6c-1.1,1.5-2.6,2.4-4.3,3
		c-1.2,0.3-3.4,0.4-6.7,0.2l-10.5-0.7c-1.7-0.1-2.8,0-3.3,0.5c-0.6,0.4-0.9,1.1-0.9,2.2l-0.1,1l-0.7-0.1l0.8-11.6l0.7,0l-0.1,1
		c-0.1,1.1,0.2,1.9,0.9,2.5c0.5,0.4,1.4,0.6,3,0.7l11.8,0.8c1,0.1,2.3,0.1,3.6,0c1.4-0.1,2.4-0.4,3.2-0.8c0.8-0.4,1.5-1.1,2-2
		c0.6-0.9,0.9-2.1,1-3.4c0.1-1.8-0.2-3.4-0.8-4.8c-0.7-1.4-1.6-2.5-2.8-3.1c-1.2-0.6-3.2-1-6-1.2l-10.9-0.8c-1.7-0.1-2.8,0-3.2,0.3
		c-0.6,0.5-1,1.2-1,2.2L2.6,321.9z"/>
	<path class="st1" d="M5.8,289.2l1.6-7.2l23.4-11.7L15.6,267c-1.6-0.4-2.7-0.4-3.2-0.1c-0.7,0.4-1.1,1.1-1.3,2.1l-0.2,0.9l-0.7-0.2
		l2-9.2l0.7,0.2l-0.2,0.9c-0.2,1.1-0.1,2,0.5,2.6c0.4,0.4,1.3,0.7,2.7,1.1l22.3,4.9l-0.2,0.7l-25.1,12.7l16.3,3.6
		c1.6,0.4,2.7,0.4,3.2,0.1c0.7-0.4,1.1-1.1,1.3-2.1l0.2-0.9l0.7,0.2l-2,9.2l-0.7-0.2l0.2-0.9c0.3-1.1,0.1-2-0.5-2.6
		c-0.4-0.4-1.3-0.7-2.7-1.1l-18.4-4.1c-1.1,0.6-1.8,1-2.2,1.3c-0.4,0.3-0.8,0.9-1.2,1.6c-0.2,0.4-0.4,0.9-0.6,1.7L5.8,289.2z"/>
	<path class="st1" d="M48.2,235.1L48.2,235.1l0.7,0.2L45,246.2l-0.7-0.2l0.3-0.9c0.4-1,0.3-1.9-0.1-2.6c-0.3-0.4-1.2-0.9-2.7-1.5
		l-16.4-5.9c-1.3-0.5-2.2-0.7-2.6-0.7c-0.4,0-0.7,0.2-1.1,0.5c-0.5,0.4-0.9,1-1.1,1.6l-0.3,0.9l-0.7-0.2l3.9-10.9l0.7,0.2l-0.3,0.9
		c-0.4,1-0.3,1.9,0.1,2.6c0.3,0.5,1.2,1,2.7,1.5l16.4,5.9c1.3,0.5,2.2,0.7,2.6,0.7c0.4,0,0.7-0.2,1.1-0.5c0.5-0.4,0.8-0.9,1.1-1.5
		L48.2,235.1z M14.9,229.3c0.2-0.6,0.6-1,1.1-1.2c0.5-0.3,1.1-0.3,1.7-0.1c0.6,0.2,1,0.6,1.2,1.1c0.3,0.5,0.3,1.1,0.1,1.7
		c-0.2,0.6-0.6,1-1.1,1.2c-0.5,0.3-1.1,0.3-1.7,0.1c-0.6-0.2-1-0.6-1.2-1.1C14.7,230.4,14.7,229.9,14.9,229.3z"/>
	<path class="st1" d="M45.7,178.2l0.7,0.3c-0.3,0.9-0.3,1.7-0.2,2.3c0.3,0.9,0.9,1.9,1.8,3l16.2,18.8l-0.3,0.7l-25.4-1.6
		c-1.3-0.1-2.1-0.1-2.5,0c-0.5,0.1-1,0.3-1.4,0.7c-0.4,0.3-0.9,0.8-1.3,1.5l-0.7-0.3l5-9.8l0.7,0.3c-0.5,1.2-0.6,2-0.5,2.5
		c0.1,0.5,0.4,0.8,0.8,1c0.6,0.3,1.7,0.5,3.2,0.6l17.3,1.1l-11-12.8c-1.1-1.3-1.9-2-2.4-2.3c-0.3-0.2-0.8-0.2-1.2,0
		c-0.5,0.2-1,0.7-1.6,1.4c0,0.1-0.1,0.1-0.2,0.3l-0.7-0.3L45.7,178.2z"/>
	<path class="st1" d="M64.2,151.8L73,158l3.4-4.8c0.9-1.3,1.3-2.2,1.2-2.9c-0.1-0.9-0.8-1.9-2-2.8l0.4-0.6l7.7,5.4l-0.4,0.6
		c-1.2-0.6-2-0.9-2.4-1c-0.5-0.1-1,0-1.6,0.3c-0.5,0.3-1.1,0.9-1.8,1.8l-3.4,4.8l7.3,5.1c1,0.7,1.6,1.1,1.9,1.1
		c0.3,0.1,0.5,0,0.8-0.1c0.3-0.1,0.6-0.5,1.1-1.1l2.6-3.7c0.9-1.2,1.4-2.2,1.7-2.9c0.2-0.7,0.3-1.5,0.1-2.4
		c-0.2-1.1-0.7-2.6-1.6-4.2l0.5-0.6l4.2,5.8l-12,17l-0.6-0.4l0.6-0.8c0.4-0.5,0.6-1.1,0.7-1.7c0.1-0.5,0-0.9-0.3-1.3
		c-0.3-0.4-0.9-0.9-2-1.7l-14.4-10.1c-1.4-1-2.4-1.5-2.9-1.4c-0.7,0.1-1.4,0.6-2,1.5l-0.6,0.8l-0.6-0.4l12-17l5,3.2l-0.4,0.6
		c-1.3-0.6-2.3-0.9-2.9-0.9c-0.6,0-1.3,0.1-1.9,0.5c-0.5,0.3-1.1,1-1.9,2.1L64.2,151.8z"/>
	<path class="st1" d="M102.5,122.4L102.5,122.4c0.2-0.2,0.3-0.3,0.5-0.5c0.1-0.1,0.2-0.2,0.3-0.3c1.8-1.9,2.7-3.7,2.8-5.4
		c0.1-1.7-0.5-3.2-1.8-4.3c-1.2-1.2-2.6-1.7-4.1-1.7c-1.5,0-2.8,0.7-4,2c-0.5,0.6-1.1,1.4-1.9,2.5L102.5,122.4z M125.8,117.9
		l-4.9,5.3l-15.5-2c-0.4,0.5-0.8,0.9-1.1,1.2c-0.1,0.1-0.2,0.3-0.4,0.4c-0.1,0.1-0.3,0.3-0.4,0.4l5.7,5.4c1.2,1.2,2.1,1.8,2.7,1.8
		c0.8,0,1.5-0.3,2.2-1.1l0.7-0.8l0.5,0.5l-7.9,8.4l-0.5-0.5l0.7-0.7c0.8-0.8,1.1-1.7,0.9-2.5c-0.1-0.5-0.7-1.3-1.9-2.3l-12.7-11.9
		c-1.2-1.2-2.1-1.7-2.7-1.8c-0.8,0-1.5,0.3-2.2,1.1l-0.7,0.7l-0.5-0.5l6.7-7.2c2-2.1,3.6-3.5,4.8-4.2c1.2-0.7,2.6-1,4.1-0.9
		c1.5,0.1,2.8,0.6,3.9,1.7c1.2,1.1,1.9,2.5,2,4.1c0.2,1.6-0.4,3.4-1.6,5.4l9.5,1.2c2.2,0.3,3.8,0.3,4.8,0c1-0.3,2.1-0.9,3.3-1.9
		L125.8,117.9z"/>
	<path class="st1" d="M137,71.8l5.9,7.3l-0.6,0.5c-1.3-1.2-2.6-2.1-3.7-2.5c-1.1-0.4-2.4-0.5-3.6-0.3c-1.3,0.2-2.4,0.7-3.3,1.5
		c-1.1,0.9-1.7,1.9-1.9,3.1c-0.2,1.2,0.1,2.3,0.8,3.1c0.5,0.6,1.2,1,2.1,1.2c1.3,0.3,3.6,0.1,7.1-0.6c2.8-0.5,4.8-0.8,6-0.8
		c1.2,0,2.3,0.2,3.3,0.6c1,0.4,1.8,1.1,2.5,1.9c1.3,1.6,1.8,3.5,1.5,5.6c-0.3,2.1-1.4,4-3.4,5.6c-0.6,0.5-1.2,0.9-1.8,1.3
		c-0.4,0.2-1.2,0.6-2.4,1c-1.3,0.5-2,0.8-2.3,1.1c-0.3,0.2-0.4,0.5-0.4,0.7c0,0.3,0.1,0.7,0.4,1.2l-0.6,0.5l-5.8-7.2l0.6-0.5
		c1.5,1.3,2.8,2.1,3.8,2.5c1.1,0.4,2.3,0.4,3.6,0.2c1.3-0.3,2.6-0.8,3.7-1.8c1.3-1,2-2.2,2.2-3.5c0.2-1.3-0.1-2.4-0.8-3.3
		c-0.4-0.5-1-0.9-1.7-1.2c-0.7-0.3-1.6-0.4-2.5-0.4c-0.7,0-2.3,0.3-4.9,0.7c-2.6,0.5-4.5,0.7-5.8,0.7c-1.2,0-2.4-0.2-3.3-0.6
		c-1-0.4-1.8-1-2.5-1.9c-1.2-1.5-1.7-3.3-1.4-5.3c0.3-2,1.3-3.8,3.1-5.2c1.1-0.9,2.5-1.6,4.2-2.1c0.8-0.2,1.3-0.4,1.5-0.6
		c0.3-0.2,0.4-0.5,0.5-0.8c0-0.3-0.1-0.7-0.4-1.3L137,71.8z"/>
	<path class="st1" d="M161.1,47.1L161.1,47.1c0.5-0.3,1.1-0.4,1.6-0.3c0.6,0.1,1,0.4,1.4,1c0.3,0.5,0.4,1,0.3,1.6
		c-0.1,0.6-0.4,1-1,1.4c-0.5,0.3-1.1,0.4-1.6,0.3c-0.6-0.1-1-0.4-1.4-1c-0.3-0.5-0.4-1-0.3-1.6C160.3,47.9,160.6,47.4,161.1,47.1
		 M183.9,72.1l0.4,0.6l-9.8,6.2l-0.4-0.6l0.8-0.5c0.9-0.6,1.5-1.3,1.5-2.1c0-0.5-0.4-1.5-1.2-2.8l-9.4-14.7
		c-0.7-1.2-1.3-1.9-1.7-2.1c-0.3-0.2-0.7-0.3-1.1-0.3c-0.7,0-1.3,0.2-1.8,0.6l-0.8,0.5l-0.4-0.6l9.8-6.2l0.4,0.6l-0.8,0.5
		c-0.9,0.6-1.4,1.3-1.5,2.1c-0.1,0.5,0.4,1.5,1.2,2.9l9.4,14.7c0.7,1.2,1.3,1.9,1.7,2.1c0.3,0.2,0.7,0.3,1.2,0.3
		c0.7,0,1.2-0.2,1.8-0.6L183.9,72.1z"/>
	<path class="st1" d="M211.7,27.8l3,5.6l-0.7,0.3c-0.6-0.9-1.1-1.6-1.6-1.9c-0.7-0.5-1.4-0.8-2.2-0.8c-0.8,0-1.7,0.2-2.7,0.7
		l-3.4,1.6l8.9,18.6c0.7,1.5,1.3,2.4,1.8,2.6c0.7,0.3,1.5,0.2,2.5-0.3l0.8-0.4l0.3,0.7l-10.3,5l-0.3-0.7l0.9-0.4
		c1-0.5,1.6-1.2,1.7-2c0.1-0.5-0.2-1.4-0.9-2.8L200.7,35l-2.9,1.4c-1.1,0.5-1.9,1-2.3,1.4c-0.5,0.5-0.8,1.2-1,2.1
		c-0.1,0.9,0,1.9,0.5,3l-0.7,0.3l-2.5-5.8L211.7,27.8z"/>
	<path class="st1" d="M243.1,17.5l3.3,10.2l5.7-1.8c1.5-0.5,2.4-1,2.7-1.6c0.5-0.8,0.5-1.9,0.1-3.4l0.7-0.2l2.9,8.9l-0.7,0.2
		c-0.6-1.2-1-1.9-1.3-2.2c-0.4-0.4-0.9-0.6-1.5-0.7c-0.6-0.1-1.4,0-2.5,0.4l-5.7,1.8l2.7,8.5c0.4,1.1,0.6,1.8,0.8,2
		c0.2,0.2,0.4,0.4,0.7,0.4c0.3,0.1,0.8,0,1.5-0.2l4.4-1.4c1.5-0.5,2.5-0.9,3.1-1.3c0.6-0.4,1.1-1,1.5-1.8c0.5-1,1-2.5,1.3-4.3
		l0.8-0.2l-0.2,7.2l-19.9,6.4l-0.2-0.7l0.9-0.3c0.6-0.2,1.1-0.5,1.6-1c0.3-0.3,0.5-0.7,0.5-1.2c0-0.4-0.2-1.3-0.6-2.6l-5.4-16.7
		c-0.5-1.6-1-2.6-1.5-2.9c-0.6-0.4-1.5-0.4-2.5,0l-0.9,0.3l-0.2-0.7l19.9-6.4l2.1,5.5l-0.7,0.2c-0.7-1.3-1.3-2.1-1.8-2.5
		c-0.5-0.4-1.1-0.6-1.8-0.7c-0.6,0-1.5,0.2-2.8,0.6L243.1,17.5z"/>
	<path class="st1" d="M304,1.4l1.4,6.2l-0.7,0.1c-0.3-1.1-0.7-1.8-1-2.2c-0.5-0.7-1.2-1.2-1.9-1.4C301,3.9,300.1,3.8,299,4l-3.8,0.7
		l3.6,20.3c0.3,1.6,0.6,2.6,1.1,3c0.6,0.5,1.4,0.6,2.4,0.4l0.9-0.2l0.1,0.7l-11.3,2l-0.1-0.7l0.9-0.2c1.1-0.2,1.9-0.7,2.2-1.4
		c0.2-0.5,0.2-1.4-0.1-2.9l-3.6-20.3l-3.2,0.6c-1.2,0.2-2.1,0.5-2.6,0.7c-0.6,0.4-1.1,0.9-1.5,1.7c-0.4,0.8-0.5,1.8-0.4,3l-0.7,0.1
		l-0.8-6.3L304,1.4z"/>
	<path class="st1" d="M445.9,10.7l0.2-0.7l9.3,2.3l-0.2,0.7l-1-0.2c-1-0.3-1.9,0-2.7,0.7c-0.4,0.3-0.7,1.2-1.1,2.7l-2.7,10.6
		c-0.7,2.6-1.4,4.6-2.3,5.9c-0.9,1.3-2.2,2.3-4,3c-1.8,0.7-4,0.6-6.6,0c-2.9-0.7-4.9-1.8-6.1-3.1c-1.2-1.4-1.9-3-2.1-4.8
		c-0.1-1.2,0.2-3.4,1-6.6l2.6-10.2c0.4-1.6,0.4-2.7,0.1-3.3c-0.3-0.6-1-1-2-1.3l-1-0.2l0.2-0.7l11.3,2.9l-0.2,0.7l-1-0.3
		c-1.1-0.3-1.9-0.1-2.6,0.4c-0.4,0.4-0.8,1.3-1.2,2.8l-2.9,11.4c-0.3,1-0.5,2.2-0.6,3.6c-0.1,1.4-0.1,2.5,0.2,3.3
		c0.3,0.9,0.9,1.6,1.7,2.3c0.8,0.7,1.9,1.2,3.2,1.6c1.7,0.4,3.3,0.4,4.9,0c1.5-0.4,2.7-1.1,3.5-2.2c0.8-1,1.5-3,2.2-5.7l2.7-10.6
		c0.4-1.6,0.5-2.7,0.2-3.2c-0.4-0.7-1-1.2-2-1.4L445.9,10.7z"/>
	<path class="st1" d="M480.1,20.5l6.7,2.9l7.2,25.1l6.2-14.3c0.7-1.5,0.9-2.6,0.7-3.1c-0.2-0.7-0.8-1.3-1.8-1.7l-0.9-0.4l0.3-0.7
		l8.7,3.7l-0.3,0.7l-0.9-0.4c-1.1-0.5-1.9-0.5-2.6,0c-0.4,0.3-1,1.1-1.5,2.5l-9,20.9l-0.7-0.3l-7.8-27l-6.6,15.3
		c-0.7,1.5-0.9,2.5-0.7,3.1c0.2,0.7,0.8,1.3,1.8,1.7l0.9,0.4l-0.3,0.7l-8.7-3.7l0.3-0.7l0.9,0.4c1.1,0.5,1.9,0.5,2.7,0
		c0.4-0.3,1-1.1,1.5-2.5l7.4-17.3c-0.4-1.1-0.7-1.9-0.9-2.4c-0.3-0.4-0.7-0.9-1.3-1.5c-0.3-0.3-0.8-0.5-1.5-0.9L480.1,20.5z"/>
	<path class="st1" d="M527.5,73.5l-0.4,0.6l-9.9-5.9l0.4-0.6l0.8,0.5c1,0.6,1.8,0.7,2.6,0.4c0.5-0.2,1.2-1,2-2.4l9-15
		c0.7-1.2,1.1-2,1.2-2.5c0.1-0.4,0-0.7-0.3-1.2c-0.3-0.6-0.8-1-1.3-1.4l-0.8-0.5l0.4-0.6l9.9,5.9l-0.4,0.6l-0.8-0.5
		c-0.9-0.6-1.8-0.7-2.6-0.4c-0.5,0.2-1.2,1-2,2.4l-9,15c-0.7,1.2-1.1,2-1.2,2.5c-0.1,0.4,0,0.7,0.3,1.2c0.3,0.6,0.8,1,1.3,1.3
		L527.5,73.5z"/>
	<path class="st1" d="M585.9,83.6l-0.5,0.6c-0.9-0.5-1.6-0.7-2.3-0.6c-1,0.1-2.1,0.5-3.3,1.2l-21.7,12.1l-0.6-0.5l6.6-24.5
		c0.3-1.3,0.5-2.1,0.5-2.4c0-0.5-0.1-1-0.4-1.5c-0.2-0.5-0.7-1-1.3-1.6l0.5-0.6l8.6,6.9l-0.5,0.6c-1.1-0.7-1.8-1-2.3-1
		c-0.5,0-0.9,0.2-1.2,0.6c-0.4,0.5-0.8,1.5-1.2,3l-4.5,16.7l14.7-8.3c1.5-0.8,2.4-1.5,2.7-1.9c0.2-0.3,0.3-0.7,0.2-1.2
		c-0.1-0.5-0.4-1.1-1.1-1.8c0-0.1-0.1-0.1-0.2-0.3l0.5-0.6L585.9,83.6z"/>
	<path class="st1" d="M609.9,108.8l-7.8,7.3l4.1,4.3c1.1,1.1,1.9,1.7,2.6,1.8c0.9,0.1,2-0.4,3.2-1.4l0.5,0.5l-6.9,6.4l-0.5-0.5
		c0.8-1,1.3-1.7,1.5-2.1c0.2-0.5,0.2-1,0-1.6c-0.2-0.6-0.7-1.3-1.4-2.1l-4.1-4.3l-6.5,6.1c-0.9,0.8-1.4,1.3-1.5,1.6
		c-0.1,0.3-0.1,0.5-0.1,0.8c0.1,0.3,0.4,0.7,0.9,1.3l3.1,3.4c1,1.1,1.9,1.9,2.5,2.2c0.6,0.4,1.4,0.6,2.3,0.6c1.2,0,2.7-0.2,4.5-0.7
		l0.5,0.6l-6.6,2.9L586,120.6l0.5-0.5l0.7,0.7c0.4,0.5,1,0.8,1.6,1c0.4,0.2,0.9,0.2,1.3,0c0.4-0.2,1.1-0.7,2.1-1.6l12.9-12
		c1.3-1.2,1.9-2,2-2.5c0.1-0.7-0.3-1.5-1-2.3l-0.7-0.7l0.5-0.5l14.2,15.2l-4.1,4.2l-0.5-0.6c0.8-1.2,1.4-2.1,1.5-2.7
		c0.2-0.6,0.1-1.3-0.1-1.9c-0.2-0.5-0.8-1.3-1.7-2.3L609.9,108.8z"/>
	<path class="st1" d="M632.4,154.2L632.4,154.2c0.1,0.2,0.3,0.4,0.4,0.5c0.1,0.2,0.2,0.3,0.3,0.4c1.5,2.1,3,3.4,4.7,3.8
		c1.7,0.4,3.2,0.2,4.6-0.8c1.4-1,2.2-2.2,2.5-3.6c0.3-1.5-0.1-2.9-1.1-4.4c-0.4-0.6-1.1-1.4-2.1-2.4L632.4,154.2z M631.8,177.9
		l-4.1-5.9l5.2-14.7c-0.4-0.5-0.7-1-1-1.3c-0.1-0.1-0.2-0.3-0.3-0.5c-0.1-0.2-0.2-0.3-0.3-0.5l-6.5,4.5c-1.4,1-2.2,1.7-2.3,2.3
		c-0.2,0.7,0,1.5,0.6,2.4l0.6,0.9l-0.6,0.4l-6.6-9.5l0.6-0.4l0.6,0.8c0.6,0.9,1.4,1.4,2.3,1.4c0.5,0,1.4-0.4,2.7-1.3l14.4-9.9
		c1.4-1,2.2-1.7,2.3-2.3c0.2-0.8,0-1.6-0.6-2.4l-0.6-0.8l0.6-0.4l5.6,8.1c1.6,2.4,2.7,4.2,3.1,5.6c0.4,1.4,0.4,2.7,0.1,4.2
		c-0.4,1.4-1.2,2.6-2.5,3.4c-1.4,0.9-2.9,1.3-4.5,1.1c-1.6-0.2-3.3-1.1-5-2.7l-3.2,9c-0.7,2.1-1.1,3.6-1.1,4.7
		c0,1.1,0.4,2.3,1.1,3.6L631.8,177.9z"/>
	<path class="st1" d="M675.7,201.1l-8.4,4.1l-0.3-0.7c1.5-1,2.6-2,3.3-3.1c0.7-1,1-2.2,1.1-3.5c0.1-1.3-0.2-2.5-0.7-3.6
		c-0.6-1.2-1.5-2.1-2.7-2.5c-1.2-0.4-2.2-0.4-3.2,0.1c-0.7,0.4-1.3,1-1.6,1.8c-0.5,1.2-0.8,3.5-1,7c-0.1,2.9-0.3,4.9-0.5,6
		c-0.2,1.1-0.7,2.2-1.4,3c-0.7,0.9-1.5,1.6-2.4,2c-1.8,0.9-3.8,1-5.8,0.2c-2-0.8-3.6-2.3-4.7-4.5c-0.3-0.7-0.6-1.4-0.8-2.1
		c-0.1-0.4-0.3-1.3-0.5-2.6c-0.2-1.3-0.4-2.2-0.5-2.5c-0.1-0.3-0.4-0.5-0.6-0.6c-0.3-0.1-0.7,0-1.3,0.2l-0.3-0.7l8.3-4.1l0.3,0.7
		c-1.6,1.2-2.7,2.2-3.3,3.2c-0.6,0.9-0.9,2.1-1,3.5c0,1.4,0.3,2.7,0.9,4c0.7,1.5,1.7,2.5,2.9,2.9c1.2,0.5,2.4,0.4,3.4-0.1
		c0.6-0.3,1.1-0.8,1.6-1.4c0.4-0.6,0.8-1.4,0.9-2.4c0.1-0.6,0.3-2.3,0.4-4.9c0.1-2.6,0.3-4.6,0.6-5.8c0.3-1.2,0.7-2.3,1.3-3.1
		c0.6-0.9,1.4-1.5,2.4-2c1.7-0.9,3.6-0.9,5.5-0.2c1.9,0.7,3.4,2.1,4.4,4.2c0.6,1.3,1,2.8,1.1,4.6c0,0.8,0.1,1.4,0.2,1.6
		c0.2,0.3,0.4,0.5,0.7,0.6c0.3,0.1,0.7,0.1,1.4-0.1L675.7,201.1z"/>
	<path class="st1" d="M665.8,248.9l-0.7,0.2l-3.8-10.9l0.7-0.2l0.3,0.9c0.4,1.1,0.9,1.7,1.7,2c0.5,0.2,1.5,0,3.1-0.6l16.5-5.8
		c1.3-0.5,2.1-0.8,2.5-1.1c0.3-0.2,0.5-0.6,0.5-1.1c0.1-0.7,0.1-1.3-0.2-1.9l-0.3-0.9l0.7-0.2l3.8,10.9l-0.7,0.2l-0.3-0.9
		c-0.4-1-0.9-1.7-1.7-2c-0.5-0.2-1.5,0-3.1,0.5l-16.5,5.8c-1.3,0.5-2.1,0.8-2.5,1.1c-0.3,0.2-0.4,0.6-0.5,1.1
		c-0.1,0.6-0.1,1.3,0.1,1.9L665.8,248.9z"/>
	<path class="st1" d="M703.1,288.6l-6.1,1.6l-0.2-0.7c1.1-0.4,1.8-0.7,2.2-1.1c0.7-0.6,1.1-1.2,1.3-2c0.2-0.7,0.2-1.7,0-2.8
		l-0.8-3.7l-20.2,4.3c-1.6,0.3-2.6,0.7-2.9,1.2c-0.4,0.6-0.6,1.4-0.3,2.5l0.2,0.9l-0.7,0.2l-2.4-11.2l0.7-0.2l0.2,0.9
		c0.2,1.1,0.7,1.8,1.5,2.2c0.5,0.2,1.5,0.1,2.9-0.2l20.2-4.3L698,273c-0.3-1.2-0.5-2.1-0.8-2.6c-0.4-0.6-1-1.1-1.8-1.4
		c-0.8-0.3-1.8-0.4-3-0.3l-0.2-0.7l6.3-1L703.1,288.6z"/>
	<path class="st1" d="M708.1,334.9l0.6,9.4l-0.7,0l0-0.5c0-0.3-0.2-0.8-0.5-1.5c-0.3-0.6-0.8-1.2-1.4-1.7c-0.6-0.5-1.6-1.1-2.9-1.8
		l-10.6-5.9l-6.8,0.4c-1.7,0.1-2.7,0.3-3.1,0.7c-0.5,0.5-0.8,1.3-0.7,2.4l0.1,0.9l-0.7,0l-0.7-11.4l0.7,0l0.1,1
		c0.1,1.1,0.5,1.9,1.2,2.4c0.4,0.3,1.4,0.4,2.9,0.3l6.4-0.4l10.9-8.1c1.3-1,2.1-1.6,2.4-1.9c0.3-0.3,0.7-1,1.1-2
		c0.1-0.3,0.2-0.7,0.1-1.2l0.7,0l0.7,11.5l-0.7,0l0-0.6c0-0.6-0.2-1.2-0.5-1.7c-0.3-0.5-0.8-0.7-1.4-0.7c-0.5,0-1.3,0.5-2.5,1.4
		l-8.4,6.1l8.6,4.8c1.3,0.7,2.2,1.1,2.9,1c0.4,0,0.7-0.1,1-0.3c0.3-0.2,0.5-0.5,0.6-0.9c0.1-0.4,0.2-0.9,0.2-1.6L708.1,334.9z"/>
	<rect y="365.9" class="st1" width="708.1" height="18.9"/>
	<rect x="35.2" y="390.2" class="st1" width="637.8" height="18.9"/>
	<rect x="67.2" y="413.9" class="st1" width="573.8" height="18.9"/>
	<rect x="100.7" y="437.4" class="st1" width="506.8" height="18.9"/>
	<path class="st1" d="M371.9,12.7L371.9,12.7v3h-3l-2.1,2.1l-2.1-2.1h-3v-3l-2.1-2.1l2.1-2.1v-3h3l2.1-2.1l2.1,2.1h3v3l2.1,2.1
		L371.9,12.7z M374.3,7.5V3.1l-4.4,0L366.8,0l-3.1,3.1h-4.4v4.4l-3.1,3.1l3.1,3.1v4.4h4.4l3.1,3.1l3.1-3.1h4.4v-4.4l3.1-3.1
		L374.3,7.5z"/>
</g>
</svg>
